Coordinates
nRows=363
nColumns=2
inDegrees=yes
endheader
time	ankle_angle_r	
0	  9.445070	
0.0332661	  9.444157	
0.0665323	  9.449672	
0.0997984	  9.460011	
0.133065	  9.466527	
0.166331	  9.458916	
0.199597	  9.437695	
0.232863	  9.421086	
0.266129	  9.424256	
0.299395	  9.440635	
0.332661	  9.456430	
0.365927	  9.464686	
0.399194	  9.462572	
0.43246	  9.452292	
0.465726	  9.441235	
0.498992	  9.439472	
0.532258	  9.454457	
0.565524	  9.477833	
0.59879	  9.491985	
0.632056	  9.494715	
0.665323	  9.496517	
0.698589	  9.500735	
0.731855	  9.503126	
0.765121	  9.501135	
0.798387	  9.498593	
0.831653	  9.501437	
0.864919	  9.506904	
0.898185	  9.508581	
0.931452	  9.508163	
0.964718	  9.509067	
0.997984	  9.510371	
1.03125	  9.511688	
1.06452	  9.514773	
1.09778	  9.521202	
1.13105	  9.528252	
1.16431	  9.530501	
1.19758	  9.529098	
1.23085	  9.528620	
1.26411	  9.527445	
1.29738	  9.523227	
1.33065	  9.517848	
1.36391	  9.512944	
1.39718	  9.510051	
1.43044	  9.510636	
1.46371	  9.513156	
1.49698	  9.513268	
1.53024	  9.504313	
1.56351	  9.483489	
1.59677	  9.460765	
1.63004	  9.449274	
1.66331	  9.449910	
1.69657	  9.456550	
1.72984	  9.464293	
1.7631	  9.468875	
1.79637	  9.468525	
1.82964	  9.461199	
1.8629	  9.448172	
1.89617	  9.445902	
1.92944	  9.466090	
1.9627	  9.491741	
1.99597	  9.501133	
2.02923	  9.492928	
2.0625	  9.478563	
2.09577	  9.471098	
2.12903	  9.474523	
2.1623	  9.481291	
2.19556	  9.486851	
2.22883	  9.491527	
2.2621	  9.491202	
2.29536	  9.483841	
2.32863	  9.475640	
2.3619	  9.472221	
2.39516	  9.472888	
2.42843	  9.472952	
2.46169	  9.471028	
2.49496	  9.473913	
2.52823	  9.483160	
2.56149	  9.488100	
2.59476	  9.486090	
2.62802	  9.487145	
2.66129	  9.494742	
2.69456	  9.503613	
2.72782	  9.509626	
2.76109	  9.513163	
2.79435	  9.518688	
2.82762	  9.526470	
2.86089	  9.530919	
2.89415	  9.534012	
2.92742	  9.541330	
2.96069	  9.547201	
2.99395	  9.544579	
3.02722	  9.537318	
3.06048	  9.532028	
3.09375	  9.530401	
3.12702	  9.529957	
3.16028	  9.528973	
3.19355	  9.529959	
3.22681	  9.531833	
3.26008	  9.528340	
3.29335	  9.520948	
3.32661	  9.517278	
3.35988	  9.517771	
3.39315	  9.516417	
3.42641	  9.510350	
3.45968	  9.505047	
3.49294	  9.507623	
3.52621	  9.513912	
3.55948	  9.512864	
3.59274	  9.501735	
3.62601	  9.487029	
3.65927	  9.477414	
3.69254	  9.476464	
3.72581	  9.478710	
3.75907	  9.477252	
3.79234	  9.470238	
3.8256	  9.460158	
3.85887	  9.452356	
3.89214	  9.448879	
3.9254	  9.445143	
3.95867	  9.436493	
3.99194	  9.423822	
4.0252	  9.412895	
4.05847	  9.411116	
4.09173	  9.421186	
4.125	  9.436651	
4.15827	  9.450709	
4.19153	  9.464087	
4.2248	  9.475329	
4.25806	  9.478936	
4.29133	  9.477036	
4.3246	  9.474092	
4.35786	  9.469404	
4.39113	  9.466188	
4.4244	  9.470407	
4.45766	  9.481175	
4.49093	  9.492359	
4.52419	  9.497334	
4.55746	  9.495819	
4.59073	  9.494572	
4.62399	  9.494536	
4.65726	  9.491678	
4.69052	  9.488787	
4.72379	  9.489811	
4.75706	  9.492624	
4.79032	  9.494159	
4.82359	  9.493144	
4.85685	  9.491241	
4.89012	  9.491787	
4.92339	  9.492751	
4.95665	  9.491045	
4.98992	  9.489801	
5.02319	  9.488042	
5.05645	  9.479461	
5.08972	  9.467612	
5.12298	  9.461549	
5.15625	  9.462521	
5.18952	  9.464193	
5.22278	  9.457321	
5.25605	  9.442548	
5.28931	  9.435024	
5.32258	  9.443739	
5.35585	  9.461146	
5.38911	  9.476002	
5.42238	  9.482656	
5.45565	  9.480330	
5.48891	  9.467991	
5.52218	  9.445670	
5.55544	  9.424281	
5.58871	  9.418479	
5.62198	  9.428601	
5.65524	  9.446081	
5.68851	  9.465120	
5.72177	  9.477106	
5.75504	  9.472473	
5.78831	  9.453265	
5.82157	  9.434322	
5.85484	  9.432126	
5.8881	  9.446315	
5.92137	  9.457287	
5.95464	  9.452853	
5.9879	  9.440283	
6.02117	  9.430653	
6.05444	  9.428285	
6.0877	  9.429792	
6.12097	  9.432950	
6.15423	  9.444424	
6.1875	  9.464158	
6.22077	  9.479059	
6.25403	  9.484583	
6.2873	  9.487055	
6.32056	  9.489538	
6.35383	  9.495107	
6.3871	  9.506569	
6.42036	  9.521066	
6.45363	  9.535562	
6.4869	  9.545372	
6.52016	  9.543859	
6.55343	  9.534699	
6.58669	  9.527487	
6.61996	  9.524614	
6.65323	  9.526232	
6.68649	  9.531734	
6.71976	  9.535227	
6.75302	  9.534993	
6.78629	  9.536979	
6.81956	  9.543412	
6.85282	  9.549737	
6.88609	  9.549841	
6.91935	  9.542603	
6.95262	  9.537338	
6.98589	  9.541599	
7.01915	  9.548479	
7.05242	  9.550477	
7.08569	  9.549603	
7.11895	  9.547906	
7.15222	  9.545672	
7.18548	  9.543970	
7.21875	  9.541209	
7.25202	  9.535183	
7.28528	  9.524285	
7.31855	  9.506487	
7.35181	  9.486712	
7.38508	  9.474323	
7.41835	  9.470038	
7.45161	  9.469704	
7.48488	  9.473098	
7.51815	  9.480150	
7.55141	  9.485897	
7.58468	  9.481893	
7.61794	  9.466795	
7.65121	  9.453705	
7.68448	  9.456487	
7.71774	  9.472660	
7.75101	  9.487002	
7.78427	  9.489632	
7.81754	  9.485374	
7.85081	  9.479607	
7.88407	  9.467630	
7.91734	  9.452117	
7.9506	  9.446159	
7.98387	  9.448067	
8.01714	  9.445016	
8.0504	  9.437582	
8.08367	  9.432074	
8.11694	  9.424492	
8.1502	  9.411656	
8.18347	  9.403754	
8.21673	  9.413111	
8.25	  9.435955	
8.28327	  9.453593	
8.31653	  9.452383	
8.3498	  9.435691	
8.38306	  9.415841	
8.41633	  9.403880	
8.4496	  9.403098	
8.48286	  9.408722	
8.51613	  9.419129	
8.5494	  9.433605	
8.58266	  9.442350	
8.61593	  9.441276	
8.64919	  9.438002	
8.68246	  9.431542	
8.71573	  9.417853	
8.74899	  9.408190	
8.78226	  9.411117	
8.81552	  9.417702	
8.84879	  9.419722	
8.88206	  9.419540	
8.91532	  9.421451	
8.94859	  9.424790	
8.98185	  9.423831	
9.01512	  9.417903	
9.04839	  9.416978	
9.08165	  9.427106	
9.11492	  9.438873	
9.14819	  9.440617	
9.18145	  9.435421	
9.21472	  9.434268	
9.24798	  9.439909	
9.28125	  9.446726	
9.31452	  9.451386	
9.34778	  9.455882	
9.38105	  9.459763	
9.41431	  9.460144	
9.44758	  9.458807	
9.48085	  9.458133	
9.51411	  9.456434	
9.54738	  9.451960	
9.58065	  9.445139	
9.61391	  9.439493	
9.64718	  9.437713	
9.68044	  9.434755	
9.71371	  9.427671	
9.74698	  9.424972	
9.78024	  9.433675	
9.81351	  9.450495	
9.84677	  9.467511	
9.88004	  9.478332	
9.91331	  9.483714	
9.94657	  9.488656	
9.97984	  9.495201	
10.0131	  9.505588	
10.0464	  9.520183	
10.0796	  9.531899	
10.1129	  9.535585	
10.1462	  9.532998	
10.1794	  9.527777	
10.2127	  9.524386	
10.246	  9.524495	
10.2792	  9.526806	
10.3125	  9.532643	
10.3458	  9.540545	
10.379	  9.543904	
10.4123	  9.542854	
10.4456	  9.543201	
10.4788	  9.544951	
10.5121	  9.546170	
10.5454	  9.547629	
10.5786	  9.547593	
10.6119	  9.544473	
10.6452	  9.541171	
10.6784	  9.540831	
10.7117	  9.545312	
10.745	  9.552854	
10.7782	  9.555630	
10.8115	  9.550623	
10.8448	  9.544684	
10.878	  9.542683	
10.9113	  9.543332	
10.9446	  9.544292	
10.9778	  9.544925	
11.0111	  9.547292	
11.0444	  9.550511	
11.0776	  9.547410	
11.1109	  9.534425	
11.1442	  9.516426	
11.1774	  9.499331	
11.2107	  9.485862	
11.244	  9.476594	
11.2772	  9.472389	
11.3105	  9.474255	
11.3437	  9.478703	
11.377	  9.481017	
11.4103	  9.480805	
11.4435	  9.476609	
11.4768	  9.468518	
11.5101	  9.465008	
11.5433	  9.468288	
11.5766	  9.466432	
11.6099	  9.454341	
11.6431	  9.441788	
11.6764	  9.438250	
11.7097	  9.445447	
11.7429	  9.457276	
11.7762	  9.464373	
11.8095	  9.466075	
11.8427	  9.470552	
11.876	  9.478063	
11.9093	  9.474593	
11.9425	  9.452880	
11.9758	  9.427885	
12.0091	  9.415773	
12.0423	  9.414619	
